<?xml version="1.0" standalone="no"?><!DOCTYPE svg PUBLIC "-//W3C//DTD SVG 1.1//EN" "http://www.w3.org/Graphics/SVG/1.1/DTD/svg11.dtd"><svg t="1625472591634" class="icon" viewBox="0 0 1877 1024" version="1.1" xmlns="http://www.w3.org/2000/svg" p-id="18756" xmlns:xlink="http://www.w3.org/1999/xlink" width="366.6015625" height="200"><defs><style type="text/css"></style></defs><path d="M1791.993513 341.337658V170.662342C1791.993513 76.794162 1715.199351 0 1621.318197 0H170.662342C76.794162 0 0 76.794162 0 170.662342v682.675316c0 93.855206 76.794162 170.662342 170.662342 170.662342h1450.655855c93.86818 0 170.662342-76.807136 170.662342-170.662342V682.675316c46.927603 0 85.331171-38.416542 85.331171-85.331171V426.668829c0.012974-46.927603-38.390594-85.331171-85.318197-85.331171z m-85.331171 85.331171v426.668829c0 46.927603-38.403568 85.318197-85.344145 85.318197H170.662342c-46.940577 0-85.344145-38.390594-85.344145-85.318197V170.662342c0-46.927603 38.403568-85.331171 85.344145-85.331171h1450.655855c46.940577 0 85.344145 38.403568 85.344145 85.331171v256.006487zM170.662342 853.337658h1109.318197V170.662342H170.662342v682.675316z" fill="#000000" p-id="18757" data-spm-anchor-id="a313x.7781069.0.i7" class="selected"></path><path d="M170.662342 157.688164h1471.946481v703.745381H170.662342z" fill="#000000" p-id="18758" data-spm-anchor-id="a313x.7781069.0.i5" class="selected"></path><path d="M1079.594354 433.778679h-116.585966V174.398905l-194.340218 370.542534h116.598941V841.375466" fill="#FFFFFF" p-id="18759" data-spm-anchor-id="a313x.7781069.0.i6" class=""></path></svg>