<?xml version="1.0" standalone="no"?><!DOCTYPE svg PUBLIC "-//W3C//DTD SVG 1.1//EN" "http://www.w3.org/Graphics/SVG/1.1/DTD/svg11.dtd"><svg t="1625471650231" class="icon" viewBox="0 0 1852 1024" version="1.1" xmlns="http://www.w3.org/2000/svg" p-id="4690" xmlns:xlink="http://www.w3.org/1999/xlink" width="361.71875" height="200"><defs><style type="text/css"></style></defs><path d="M1768.69181 341.333333V170.666667c0-93.866667-75.776-170.666667-168.42362-170.666667H168.472381C75.824762 0 0 76.8 0 170.666667v682.666666C0 947.2 75.824762 1024 168.472381 1024h1431.795809c92.647619 0 168.423619-76.8 168.42362-170.666667V682.666667c46.32381 0 84.260571-38.424381 84.260571-85.333334v-170.666666C1852.952381 379.757714 1815.015619 341.333333 1768.69181 341.333333z m-84.21181 512c0 46.957714-37.888 85.333333-84.21181 85.333334H168.472381c-46.32381 0-84.21181-38.375619-84.21181-85.333334v-682.666666c0-46.908952 37.888-85.333333 84.21181-85.333334h1431.795809c46.32381 0 84.21181 38.424381 84.21181 85.333334v682.666666z m-1516.007619 0H926.47619v-682.666666H168.472381v682.666666z" p-id="4691"></path></svg>