<?xml version="1.0" standalone="no"?><!DOCTYPE svg PUBLIC "-//W3C//DTD SVG 1.1//EN"
        "http://www.w3.org/Graphics/SVG/1.1/DTD/svg11.dtd">
<svg t="1625062688591" class="icon" viewBox="0 0 1024 1024" version="1.1" xmlns="http://www.w3.org/2000/svg" p-id="4710"
     xmlns:xlink="http://www.w3.org/1999/xlink" width="200" height="200">
    <defs>
        <style type="text/css"></style>
    </defs>
    <path d="M128 341.504h719.36v341.504H128z" p-id="4711" fill="#171717"></path>
    <path d="M938.496 426.496V341.504c0-47.104-38.4-85.504-85.504-85.504H128c-47.104 0-85.504 38.4-85.504 85.504v341.504c0 47.104 38.4 85.504 85.504 85.504h725.504c47.104 0 85.504-38.4 85.504-85.504v-85.504c23.552 0 42.496-19.456 42.496-42.496V469.504c0-23.552-19.456-43.008-43.008-43.008z m-42.496 256c0 23.552-19.456 42.496-42.496 42.496H128c-23.552 0-42.496-19.456-42.496-42.496V341.504c0-23.552 19.456-42.496 42.496-42.496h725.504c23.552 0 42.496 19.456 42.496 42.496v340.992z"
          p-id="4712" fill="#171717"></path>
</svg>
