<?xml version="1.0" standalone="no"?><!DOCTYPE svg PUBLIC "-//W3C//DTD SVG 1.1//EN" "http://www.w3.org/Graphics/SVG/1.1/DTD/svg11.dtd"><svg t="1625047035255" class="icon" viewBox="0 0 1024 1024" version="1.1" xmlns="http://www.w3.org/2000/svg" p-id="9155" xmlns:xlink="http://www.w3.org/1999/xlink" width="200" height="200"><defs><style type="text/css"></style></defs><path d="M1024.13824 538.24a30.08 30.08 0 0 0 0-5.12l-160-448A32 32 0 0 0 832.13824 64H192.13824a32 32 0 0 0-30.08 21.12L0.13824 533.12a30.08 30.08 0 0 0 0 5.12 30.08 30.08 0 0 0 0 5.76v320A96 96 0 0 0 96.13824 960h896a32 32 0 0 0 32-32v-384a30.72 30.72 0 0 0 0-5.76zM214.53824 128h594.56l136.96 384H704.13824a32 32 0 0 0-28.8 17.92L620.29824 640H403.97824l-55.04-110.08A32 32 0 0 0 320.13824 512H77.57824zM960.13824 896H96.13824a32 32 0 0 1-32-32V576h236.16l55.04 110.08A32 32 0 0 0 384.13824 704h256a32 32 0 0 0 28.8-17.92L723.97824 576H960.13824z" p-id="9156" fill="#000000"></path></svg>