<?xml version="1.0" standalone="no"?><!DOCTYPE svg PUBLIC "-//W3C//DTD SVG 1.1//EN" "http://www.w3.org/Graphics/SVG/1.1/DTD/svg11.dtd"><svg t="1625045920506" class="icon" viewBox="0 0 1062 1024" version="1.1" xmlns="http://www.w3.org/2000/svg" p-id="7529" xmlns:xlink="http://www.w3.org/1999/xlink" width="207.421875" height="200"><defs><style type="text/css"></style></defs><path d="M480.828 926.993l-223.469-205.441h-90.469c-57.9-0.075-104.815-46.99-104.89-104.884v-209.788c0.075-57.9 46.99-104.815 104.884-104.89h90.475l235.269-220.676s16.429-19.313 39.504-19.313c47.031 0 54.373 17.045 54.373 65.176v769.188c0 48.512-9.964 65.622-54.162 65.622-21.358 0.013-51.515-34.995-51.515-34.995zM155.143 348.312c-30.943-0.839-46.768 39.334-46.768 58.568v209.781c0 19.26 18.447 58.594 46.768 58.594h116.691c0.010 0 0.022 0 0.035 0 9.641 0 18.369 3.914 24.68 10.239l233.46 217.727c3.711 3.671 7.094 6.778 10.174 9.374v-802.884c-3.042 2.557-6.556 5.663-10.24 9.401l-233.381 218.96c-6.311 6.326-15.039 10.24-24.681 10.24-0.012 0-0.023 0-0.036 0zM691.92 747.722c-13.938-13.334 0.406-37.040 11.656-52.747l13.845-18.946c36.188-49.049 67.445-91.464 67.445-164.258 0-75.416-41.432-134.574-81.29-183.244-12.219-14.933-24.742-41.445-9.034-52.747s30.157-3.042 42.336 11.945c55.526 68.493 94.402 125.174 94.402 224.047 0 95.713-43.044 154.189-81.015 205.756l-13.36 18.29c-6.87 9.505-27.507 28.596-44.985 11.904z" p-id="7530"></path><path d="M804.324 860.387c-14.698-12.509-2.872-34.824 9.86-49.339 70.172-79.979 135.047-171.601 135.047-299.292s-64.888-219.287-135.047-299.253c-12.731-14.541-24.374-36.607-9.86-49.364s26.052-11.288 38.848 3.213c75.351 85.985 152.406 194.231 152.406 345.417s-77.056 259.461-152.406 345.366c-6.962 7.906-21.45 18.067-38.848 3.252z" p-id="7531"></path></svg>