<?xml version="1.0" standalone="no"?><!DOCTYPE svg PUBLIC "-//W3C//DTD SVG 1.1//EN" "http://www.w3.org/Graphics/SVG/1.1/DTD/svg11.dtd"><svg t="1625041612156" class="icon" viewBox="0 0 1024 1024" version="1.1" xmlns="http://www.w3.org/2000/svg" p-id="11969" xmlns:xlink="http://www.w3.org/1999/xlink" width="200" height="200"><defs><style type="text/css"></style></defs><path d="M425.5744 771.41333333a1.3504 1.3504 0 1 0 172.8512 0 1.3504 1.3504 0 1 0-172.8512 0zM512 512c-83.21706667 0-157.0816 39.3216-204.5952 100.352l45.53386667 35.4304c36.864-47.5136 94.27626667-78.0288 159.06133333-78.0288s122.12906667 30.5152 159.19786667 78.0288l45.39733333-35.4304C669.0816 551.3216 595.21706667 512 512 512zM512 166.16106667c-194.21866667 0-366.66026667 91.88693333-477.3888 234.0864l46.55786667 36.18133333C181.17973333 308.08746667 336.75946667 225.21173333 512 225.21173333c175.17226667 0 330.82026667 82.87573333 430.83093333 211.21706667l46.62613334-36.2496C878.592 257.97973333 706.21866667 166.16106667 512 166.16106667z" p-id="11970" fill="#000000"></path><path d="M512 339.08053333c-138.71786667 0-261.87093333 65.536-340.92373333 167.1168l45.4656 35.4304C285.0816 453.632 391.7824 396.6976 512 396.6976s226.85013333 56.9344 295.5264 144.93013333l45.39733333-35.4304C773.87093333 404.6848 650.71786667 339.08053333 512 339.08053333z" p-id="11971" fill="#000000"></path></svg>